<svg xmlns="http://www.w3.org/2000/svg" viewBox="0 0 52.13 52.13"><defs><style>.cls-1,.cls-2{fill:none;}.cls-1{stroke:#fff;stroke-miterlimit:10;}</style></defs><g id="레이어_2" data-name="레이어 2"><g id="아이콘"><path class="cls-1" d="M26.53,28.81h2.58a7.44,7.44,0,0,1,12.07-.3,7.82,7.82,0,0,0,1-3.83,8.09,8.09,0,0,0-6-7.7,10.24,10.24,0,0,0-18.1-2.36H14.55a9.05,9.05,0,0,0,0,18.1h6A6.58,6.58,0,0,1,26.53,28.81Z"/><path class="cls-1" d="M20.52,32.72A6.42,6.42,0,0,0,20,35.39,6.57,6.57,0,0,0,26.53,42h14a6,6,0,0,0,6.11-5.84,5.9,5.9,0,0,0-4.36-5.61,7.37,7.37,0,0,0-1.09-2"/><path class="cls-1" d="M41.18,28.51a7.44,7.44,0,0,0-12.07.3H26.53a6.58,6.58,0,0,0-6,3.91"/><rect class="cls-2" width="52.13" height="52.13"/></g></g></svg>