<svg xmlns="http://www.w3.org/2000/svg" viewBox="0 0 52.13 52.13"><defs><style>.cls-1,.cls-2{fill:none;}.cls-1{stroke:#fff;stroke-miterlimit:10;}</style></defs><g id="레이어_2" data-name="레이어 2"><g id="아이콘"><g id="비"><path class="cls-1" d="M37.54,16.38a9.51,9.51,0,0,0-16.82-2.2H17.43a8.41,8.41,0,0,0,0,16.82H35.3a7.65,7.65,0,0,0,7.82-7.47A7.53,7.53,0,0,0,37.54,16.38Z"/><line class="cls-1" x1="17.01" y1="31.3" x2="17.01" y2="37.24"/><line class="cls-1" x1="21.79" y1="31.3" x2="21.79" y2="40.25"/><line class="cls-1" x1="26.57" y1="31.3" x2="26.57" y2="42.09"/><line class="cls-1" x1="31.35" y1="31.3" x2="31.35" y2="39.36"/><line class="cls-1" x1="36.13" y1="31.3" x2="36.13" y2="36.36"/><line class="cls-1" x1="17.01" y1="31.3" x2="17.01" y2="37.24"/><line class="cls-1" x1="21.79" y1="31.3" x2="21.79" y2="40.25"/><line class="cls-1" x1="26.57" y1="31.3" x2="26.57" y2="42.09"/><line class="cls-1" x1="31.35" y1="31.3" x2="31.35" y2="39.36"/><line class="cls-1" x1="36.13" y1="31.3" x2="36.13" y2="36.36"/></g><rect class="cls-2" width="52.13" height="52.13"/></g></g></svg>